<svg aria-roledescription="flowchart-v2" role="graphics-document document" viewBox="-8 -8 663.5405883789062 1529.53759765625" style="max-width: 663.5405883789062px;" xmlns:xlink="http://www.w3.org/1999/xlink" xmlns="http://www.w3.org/2000/svg" width="100%" id="mermaid-1776756093979"><style>#mermaid-1776756093979{font-family:"trebuchet ms",verdana,arial,sans-serif;font-size:16px;fill:#333;}#mermaid-1776756093979 .error-icon{fill:#552222;}#mermaid-1776756093979 .error-text{fill:#552222;stroke:#552222;}#mermaid-1776756093979 .edge-thickness-normal{stroke-width:2px;}#mermaid-1776756093979 .edge-thickness-thick{stroke-width:3.5px;}#mermaid-1776756093979 .edge-pattern-solid{stroke-dasharray:0;}#mermaid-1776756093979 .edge-pattern-dashed{stroke-dasharray:3;}#mermaid-1776756093979 .edge-pattern-dotted{stroke-dasharray:2;}#mermaid-1776756093979 .marker{fill:#333333;stroke:#333333;}#mermaid-1776756093979 .marker.cross{stroke:#333333;}#mermaid-1776756093979 svg{font-family:"trebuchet ms",verdana,arial,sans-serif;font-size:16px;}#mermaid-1776756093979 .label{font-family:"trebuchet ms",verdana,arial,sans-serif;color:#333;}#mermaid-1776756093979 .cluster-label text{fill:#333;}#mermaid-1776756093979 .cluster-label span,#mermaid-1776756093979 p{color:#333;}#mermaid-1776756093979 .label text,#mermaid-1776756093979 span,#mermaid-1776756093979 p{fill:#333;color:#333;}#mermaid-1776756093979 .node rect,#mermaid-1776756093979 .node circle,#mermaid-1776756093979 .node ellipse,#mermaid-1776756093979 .node polygon,#mermaid-1776756093979 .node path{fill:#ECECFF;stroke:#9370DB;stroke-width:1px;}#mermaid-1776756093979 .flowchart-label text{text-anchor:middle;}#mermaid-1776756093979 .node .katex path{fill:#000;stroke:#000;stroke-width:1px;}#mermaid-1776756093979 .node .label{text-align:center;}#mermaid-1776756093979 .node.clickable{cursor:pointer;}#mermaid-1776756093979 .arrowheadPath{fill:#333333;}#mermaid-1776756093979 .edgePath .path{stroke:#333333;stroke-width:2.0px;}#mermaid-1776756093979 .flowchart-link{stroke:#333333;fill:none;}#mermaid-1776756093979 .edgeLabel{background-color:#e8e8e8;text-align:center;}#mermaid-1776756093979 .edgeLabel rect{opacity:0.5;background-color:#e8e8e8;fill:#e8e8e8;}#mermaid-1776756093979 .labelBkg{background-color:rgba(232, 232, 232, 0.5);}#mermaid-1776756093979 .cluster rect{fill:#ffffde;stroke:#aaaa33;stroke-width:1px;}#mermaid-1776756093979 .cluster text{fill:#333;}#mermaid-1776756093979 .cluster span,#mermaid-1776756093979 p{color:#333;}#mermaid-1776756093979 div.mermaidTooltip{position:absolute;text-align:center;max-width:200px;padding:2px;font-family:"trebuchet ms",verdana,arial,sans-serif;font-size:12px;background:hsl(80, 100%, 96.2745098039%);border:1px solid #aaaa33;border-radius:2px;pointer-events:none;z-index:100;}#mermaid-1776756093979 .flowchartTitleText{text-anchor:middle;font-size:18px;fill:#333;}#mermaid-1776756093979 :root{--mermaid-font-family:"trebuchet ms",verdana,arial,sans-serif;}</style><g><marker orient="auto" markerHeight="12" markerWidth="12" markerUnits="userSpaceOnUse" refY="5" refX="6" viewBox="0 0 10 10" class="marker flowchart" id="mermaid-1776756093979_flowchart-pointEnd"><path style="stroke-width: 1; stroke-dasharray: 1, 0;" class="arrowMarkerPath" d="M 0 0 L 10 5 L 0 10 z"/></marker><marker orient="auto" markerHeight="12" markerWidth="12" markerUnits="userSpaceOnUse" refY="5" refX="4.5" viewBox="0 0 10 10" class="marker flowchart" id="mermaid-1776756093979_flowchart-pointStart"><path style="stroke-width: 1; stroke-dasharray: 1, 0;" class="arrowMarkerPath" d="M 0 5 L 10 10 L 10 0 z"/></marker><marker orient="auto" markerHeight="11" markerWidth="11" markerUnits="userSpaceOnUse" refY="5" refX="11" viewBox="0 0 10 10" class="marker flowchart" id="mermaid-1776756093979_flowchart-circleEnd"><circle style="stroke-width: 1; stroke-dasharray: 1, 0;" class="arrowMarkerPath" r="5" cy="5" cx="5"/></marker><marker orient="auto" markerHeight="11" markerWidth="11" markerUnits="userSpaceOnUse" refY="5" refX="-1" viewBox="0 0 10 10" class="marker flowchart" id="mermaid-1776756093979_flowchart-circleStart"><circle style="stroke-width: 1; stroke-dasharray: 1, 0;" class="arrowMarkerPath" r="5" cy="5" cx="5"/></marker><marker orient="auto" markerHeight="11" markerWidth="11" markerUnits="userSpaceOnUse" refY="5.2" refX="12" viewBox="0 0 11 11" class="marker cross flowchart" id="mermaid-1776756093979_flowchart-crossEnd"><path style="stroke-width: 2; stroke-dasharray: 1, 0;" class="arrowMarkerPath" d="M 1,1 l 9,9 M 10,1 l -9,9"/></marker><marker orient="auto" markerHeight="11" markerWidth="11" markerUnits="userSpaceOnUse" refY="5.2" refX="-1" viewBox="0 0 11 11" class="marker cross flowchart" id="mermaid-1776756093979_flowchart-crossStart"><path style="stroke-width: 2; stroke-dasharray: 1, 0;" class="arrowMarkerPath" d="M 1,1 l 9,9 M 10,1 l -9,9"/></marker><g class="root"><g class="clusters"/><g class="edgePaths"><path marker-end="url(#mermaid-1776756093979_flowchart-pointEnd)" style="fill:none;" class="edge-thickness-normal edge-pattern-solid flowchart-link LS-START LE-RATE" id="L-START-RATE-0" d="M209.719,33.4L209.719,37.567C209.719,41.733,209.719,50.067,209.719,57.517C209.719,64.967,209.719,71.533,209.719,74.817L209.719,78.1"/><path marker-end="url(#mermaid-1776756093979_flowchart-pointEnd)" style="fill:none;" class="edge-thickness-normal edge-pattern-solid flowchart-link LS-RATE LE-CALC" id="L-RATE-CALC-0" d="M209.719,118.4L209.719,122.567C209.719,126.733,209.719,135.067,209.719,142.517C209.719,149.967,209.719,156.533,209.719,159.817L209.719,163.1"/><path marker-end="url(#mermaid-1776756093979_flowchart-pointEnd)" style="fill:none;" class="edge-thickness-normal edge-pattern-solid flowchart-link LS-CALC LE-CHECK_EF" id="L-CALC-CHECK_EF-0" d="M209.719,201.8L209.719,205.967C209.719,210.133,209.719,218.467,209.785,226C209.851,233.534,209.983,240.267,210.049,243.634L210.115,247.001"/><path marker-end="url(#mermaid-1776756093979_flowchart-pointEnd)" style="fill:none;" class="edge-thickness-normal edge-pattern-solid flowchart-link LS-CHECK_EF LE-SET_MIN" id="L-CHECK_EF-SET_MIN-0" d="M227.94,349.066L231.737,357.636C235.534,366.206,243.128,383.347,246.925,396.734C250.722,410.121,250.722,419.754,250.722,424.571L250.722,429.388"/><path marker-end="url(#mermaid-1776756093979_flowchart-pointEnd)" style="fill:none;" class="edge-thickness-normal edge-pattern-solid flowchart-link LS-CHECK_EF LE-QUALITY" id="L-CHECK_EF-QUALITY-0" d="M192.497,349.066L188.534,357.636C184.57,366.206,176.643,383.347,172.679,400.401C168.716,417.454,168.716,434.421,168.716,449.854C168.716,465.288,168.716,479.188,172.419,492.391C176.123,505.594,183.531,518.101,187.234,524.354L190.938,530.607"/><path marker-end="url(#mermaid-1776756093979_flowchart-pointEnd)" style="fill:none;" class="edge-thickness-normal edge-pattern-solid flowchart-link LS-SET_MIN LE-QUALITY" id="L-SET_MIN-QUALITY-0" d="M250.722,468.088L250.722,472.254C250.722,476.421,250.722,484.754,247.171,495.166C243.621,505.578,236.519,518.069,232.969,524.314L229.418,530.56"/><path marker-end="url(#mermaid-1776756093979_flowchart-pointEnd)" style="fill:none;" class="edge-thickness-normal edge-pattern-solid flowchart-link LS-QUALITY LE-RESET" id="L-QUALITY-RESET-0" d="M181.622,579.604L163.075,589.986C144.528,600.369,107.435,621.135,88.888,647.718C70.341,674.302,70.341,706.704,70.341,739.106C70.341,771.508,70.341,803.91,70.341,828.595C70.341,853.279,70.341,870.246,70.341,887.213C70.341,904.179,70.341,921.146,70.341,938.113C70.341,955.079,70.341,972.046,70.341,987.479C70.341,1002.913,70.341,1016.813,70.341,1040.631C70.341,1064.45,70.341,1098.188,70.341,1133.458C70.341,1168.729,70.341,1205.533,70.341,1228.752C70.341,1251.971,70.341,1261.604,70.341,1266.421L70.341,1271.238"/><path marker-end="url(#mermaid-1776756093979_flowchart-pointEnd)" style="fill:none;" class="edge-thickness-normal edge-pattern-solid flowchart-link LS-QUALITY LE-REP_CHECK" id="L-QUALITY-REP_CHECK-0" d="M241.413,577.006L266.307,587.821C291.2,598.637,340.988,620.269,365.952,635.984C390.916,651.7,391.057,661.5,391.128,666.4L391.199,671.301"/><path marker-end="url(#mermaid-1776756093979_flowchart-pointEnd)" style="fill:none;" class="edge-thickness-normal edge-pattern-solid flowchart-link LS-REP_CHECK LE-INT1" id="L-REP_CHECK-INT1-0" d="M347.46,758.798L317.691,771.717C287.922,784.636,228.385,810.474,198.616,828.21C168.847,845.946,168.847,855.579,168.847,860.396L168.847,865.213"/><path marker-end="url(#mermaid-1776756093979_flowchart-pointEnd)" style="fill:none;" class="edge-thickness-normal edge-pattern-solid flowchart-link LS-REP_CHECK LE-INT6" id="L-REP_CHECK-INT6-0" d="M372.367,783.705L368.489,792.473C364.61,801.241,356.854,818.777,352.975,832.361C349.097,845.946,349.097,855.579,349.097,860.396L349.097,865.213"/><path marker-end="url(#mermaid-1776756093979_flowchart-pointEnd)" style="fill:none;" class="edge-thickness-normal edge-pattern-solid flowchart-link LS-REP_CHECK LE-INT_CALC" id="L-REP_CHECK-INT_CALC-0" d="M431.005,762.883L451.952,775.121C472.9,787.359,514.795,811.836,535.743,828.891C556.691,845.946,556.691,855.579,556.691,860.396L556.691,865.213"/><path marker-end="url(#mermaid-1776756093979_flowchart-pointEnd)" style="fill:none;" class="edge-thickness-normal edge-pattern-solid flowchart-link LS-INT1 LE-INC_REP" id="L-INT1-INC_REP-0" d="M168.847,903.913L168.847,909.613C168.847,915.313,168.847,926.713,189.412,938.22C209.978,949.727,251.109,961.342,271.675,967.15L292.24,972.957"/><path marker-end="url(#mermaid-1776756093979_flowchart-pointEnd)" style="fill:none;" class="edge-thickness-normal edge-pattern-solid flowchart-link LS-INT6 LE-INC_REP" id="L-INT6-INC_REP-0" d="M349.097,903.913L349.097,909.613C349.097,915.313,349.097,926.713,349.097,937.229C349.097,947.746,349.097,957.379,349.097,962.196L349.097,967.013"/><path marker-end="url(#mermaid-1776756093979_flowchart-pointEnd)" style="fill:none;" class="edge-thickness-normal edge-pattern-solid flowchart-link LS-INT_CALC LE-INC_REP" id="L-INT_CALC-INC_REP-0" d="M556.691,903.913L556.691,909.613C556.691,915.313,556.691,926.713,531.576,938.57C506.461,950.428,456.231,962.744,431.116,968.902L406.001,975.06"/><path marker-end="url(#mermaid-1776756093979_flowchart-pointEnd)" style="fill:none;" class="edge-thickness-normal edge-pattern-solid flowchart-link LS-INC_REP LE-STATE_CHECK" id="L-INC_REP-STATE_CHECK-0" d="M349.097,1005.713L349.097,1009.879C349.097,1014.046,349.097,1022.379,349.163,1029.913C349.229,1037.446,349.361,1044.18,349.427,1047.547L349.493,1050.914"/><path marker-end="url(#mermaid-1776756093979_flowchart-pointEnd)" style="fill:none;" class="edge-thickness-normal edge-pattern-solid flowchart-link LS-STATE_CHECK LE-REVIEW_STATE" id="L-STATE_CHECK-REVIEW_STATE-0" d="M313.976,1173.016L303.68,1184.57C293.385,1196.123,272.794,1219.23,262.499,1238.667C252.203,1258.104,252.203,1273.871,252.203,1281.754L252.203,1289.638"/><path marker-end="url(#mermaid-1776756093979_flowchart-pointEnd)" style="fill:none;" class="edge-thickness-normal edge-pattern-solid flowchart-link LS-STATE_CHECK LE-LEARNING_STATE" id="L-STATE_CHECK-LEARNING_STATE-0" d="M391.298,1166.936L406.501,1179.503C421.703,1192.07,452.108,1217.204,467.31,1237.654C482.512,1258.104,482.512,1273.871,482.512,1281.754L482.512,1289.638"/><path marker-end="url(#mermaid-1776756093979_flowchart-pointEnd)" style="fill:none;" class="edge-thickness-normal edge-pattern-solid flowchart-link LS-RESET LE-SCHEDULE" id="L-RESET-SCHEDULE-0" d="M70.341,1346.738L70.341,1350.904C70.341,1355.071,70.341,1363.404,88.246,1371.546C106.151,1379.688,141.961,1387.638,159.866,1391.614L177.772,1395.589"/><path marker-end="url(#mermaid-1776756093979_flowchart-pointEnd)" style="fill:none;" class="edge-thickness-normal edge-pattern-solid flowchart-link LS-REVIEW_STATE LE-SCHEDULE" id="L-REVIEW_STATE-SCHEDULE-0" d="M252.203,1328.338L252.203,1335.571C252.203,1342.804,252.203,1357.271,252.674,1367.796C253.145,1378.322,254.086,1384.906,254.557,1388.199L255.028,1391.491"/><path marker-end="url(#mermaid-1776756093979_flowchart-pointEnd)" style="fill:none;" class="edge-thickness-normal edge-pattern-solid flowchart-link LS-LEARNING_STATE LE-SCHEDULE" id="L-LEARNING_STATE-SCHEDULE-0" d="M482.512,1328.338L482.512,1335.571C482.512,1342.804,482.512,1357.271,460.043,1368.681C437.573,1380.09,392.634,1388.443,370.165,1392.62L347.695,1396.796"/><path marker-end="url(#mermaid-1776756093979_flowchart-pointEnd)" style="fill:none;" class="edge-thickness-normal edge-pattern-solid flowchart-link LS-SCHEDULE LE-END" id="L-SCHEDULE-END-0" d="M258.166,1430.138L258.166,1434.304C258.166,1438.471,258.166,1446.804,258.166,1454.254C258.166,1461.704,258.166,1468.271,258.166,1471.554L258.166,1474.838"/></g><g class="edgeLabels"><g class="edgeLabel"><g transform="translate(0, 0)" class="label"><foreignObject height="0" width="0"><div style="display: inline-block; white-space: nowrap;" xmlns="http://www.w3.org/1999/xhtml"><span class="edgeLabel"></span></div></foreignObject></g></g><g class="edgeLabel"><g transform="translate(0, 0)" class="label"><foreignObject height="0" width="0"><div style="display: inline-block; white-space: nowrap;" xmlns="http://www.w3.org/1999/xhtml"><span class="edgeLabel"></span></div></foreignObject></g></g><g class="edgeLabel"><g transform="translate(0, 0)" class="label"><foreignObject height="0" width="0"><div style="display: inline-block; white-space: nowrap;" xmlns="http://www.w3.org/1999/xhtml"><span class="edgeLabel"></span></div></foreignObject></g></g><g transform="translate(250.72187566757202, 400.48750591278076)" class="edgeLabel"><g transform="translate(-11.324999809265137, -9.199999809265137)" class="label"><foreignObject height="18.399999618530273" width="22.649999618530273"><div style="display: inline-block; white-space: nowrap;" xmlns="http://www.w3.org/1999/xhtml"><span class="edgeLabel">Yes</span></div></foreignObject></g></g><g transform="translate(168.71562433242798, 451.38750648498535)" class="edgeLabel"><g transform="translate(-9.40000057220459, -9.199999809265137)" class="label"><foreignObject height="18.399999618530273" width="18.80000114440918"><div style="display: inline-block; white-space: nowrap;" xmlns="http://www.w3.org/1999/xhtml"><span class="edgeLabel">No</span></div></foreignObject></g></g><g class="edgeLabel"><g transform="translate(0, 0)" class="label"><foreignObject height="0" width="0"><div style="display: inline-block; white-space: nowrap;" xmlns="http://www.w3.org/1999/xhtml"><span class="edgeLabel"></span></div></foreignObject></g></g><g transform="translate(70.34062576293945, 938.1125154495239)" class="edgeLabel"><g transform="translate(-41.47500228881836, -9.199999809265137)" class="label"><foreignObject height="18.399999618530273" width="82.95000457763672"><div style="display: inline-block; white-space: nowrap;" xmlns="http://www.w3.org/1999/xhtml"><span class="edgeLabel">Yes (Failed)</span></div></foreignObject></g></g><g transform="translate(390.7749996185303, 641.9000101089478)" class="edgeLabel"><g transform="translate(-41.275001525878906, -9.199999809265137)" class="label"><foreignObject height="18.399999618530273" width="82.55000305175781"><div style="display: inline-block; white-space: nowrap;" xmlns="http://www.w3.org/1999/xhtml"><span class="edgeLabel">No (Passed)</span></div></foreignObject></g></g><g transform="translate(168.84687423706055, 836.3125143051147)" class="edgeLabel"><g transform="translate(-4.200000286102295, -9.199999809265137)" class="label"><foreignObject height="18.399999618530273" width="8.40000057220459"><div style="display: inline-block; white-space: nowrap;" xmlns="http://www.w3.org/1999/xhtml"><span class="edgeLabel">0</span></div></foreignObject></g></g><g transform="translate(349.09687423706055, 836.3125143051147)" class="edgeLabel"><g transform="translate(-4.200000286102295, -9.199999809265137)" class="label"><foreignObject height="18.399999618530273" width="8.40000057220459"><div style="display: inline-block; white-space: nowrap;" xmlns="http://www.w3.org/1999/xhtml"><span class="edgeLabel">1</span></div></foreignObject></g></g><g transform="translate(556.6906242370605, 836.3125143051147)" class="edgeLabel"><g transform="translate(-8.393750190734863, -9.199999809265137)" class="label"><foreignObject height="18.399999618530273" width="16.787500381469727"><div style="display: inline-block; white-space: nowrap;" xmlns="http://www.w3.org/1999/xhtml"><span class="edgeLabel">&gt;1</span></div></foreignObject></g></g><g class="edgeLabel"><g transform="translate(0, 0)" class="label"><foreignObject height="0" width="0"><div style="display: inline-block; white-space: nowrap;" xmlns="http://www.w3.org/1999/xhtml"><span class="edgeLabel"></span></div></foreignObject></g></g><g class="edgeLabel"><g transform="translate(0, 0)" class="label"><foreignObject height="0" width="0"><div style="display: inline-block; white-space: nowrap;" xmlns="http://www.w3.org/1999/xhtml"><span class="edgeLabel"></span></div></foreignObject></g></g><g class="edgeLabel"><g transform="translate(0, 0)" class="label"><foreignObject height="0" width="0"><div style="display: inline-block; white-space: nowrap;" xmlns="http://www.w3.org/1999/xhtml"><span class="edgeLabel"></span></div></foreignObject></g></g><g class="edgeLabel"><g transform="translate(0, 0)" class="label"><foreignObject height="0" width="0"><div style="display: inline-block; white-space: nowrap;" xmlns="http://www.w3.org/1999/xhtml"><span class="edgeLabel"></span></div></foreignObject></g></g><g transform="translate(252.203125, 1242.337519645691)" class="edgeLabel"><g transform="translate(-11.324999809265137, -9.199999809265137)" class="label"><foreignObject height="18.399999618530273" width="22.649999618530273"><div style="display: inline-block; white-space: nowrap;" xmlns="http://www.w3.org/1999/xhtml"><span class="edgeLabel">Yes</span></div></foreignObject></g></g><g transform="translate(482.5124988555908, 1242.337519645691)" class="edgeLabel"><g transform="translate(-9.40000057220459, -9.199999809265137)" class="label"><foreignObject height="18.399999618530273" width="18.80000114440918"><div style="display: inline-block; white-space: nowrap;" xmlns="http://www.w3.org/1999/xhtml"><span class="edgeLabel">No</span></div></foreignObject></g></g><g class="edgeLabel"><g transform="translate(0, 0)" class="label"><foreignObject height="0" width="0"><div style="display: inline-block; white-space: nowrap;" xmlns="http://www.w3.org/1999/xhtml"><span class="edgeLabel"></span></div></foreignObject></g></g><g class="edgeLabel"><g transform="translate(0, 0)" class="label"><foreignObject height="0" width="0"><div style="display: inline-block; white-space: nowrap;" xmlns="http://www.w3.org/1999/xhtml"><span class="edgeLabel"></span></div></foreignObject></g></g><g class="edgeLabel"><g transform="translate(0, 0)" class="label"><foreignObject height="0" width="0"><div style="display: inline-block; white-space: nowrap;" xmlns="http://www.w3.org/1999/xhtml"><span class="edgeLabel"></span></div></foreignObject></g></g><g class="edgeLabel"><g transform="translate(0, 0)" class="label"><foreignObject height="0" width="0"><div style="display: inline-block; white-space: nowrap;" xmlns="http://www.w3.org/1999/xhtml"><span class="edgeLabel"></span></div></foreignObject></g></g></g><g class="nodes"><g transform="translate(209.71875, 16.700000762939453)" data-id="START" data-node="true" id="flowchart-START-76" class="node default default flowchart-label"><rect height="33.39999961853027" width="152.125" y="-16.699999809265137" x="-76.0625" ry="0" rx="0" style="fill:#E3F2FD;stroke:#1565C0;" class="basic label-container"/><g transform="translate(-68.5625, -9.199999809265137)" style="" class="label"><rect/><foreignObject height="18.399999618530273" width="137.125"><div style="display: inline-block; white-space: nowrap;" xmlns="http://www.w3.org/1999/xhtml"><span class="nodeLabel">Card shown to user</span></div></foreignObject></g></g><g transform="translate(209.71875, 100.9000015258789)" data-id="RATE" data-node="true" id="flowchart-RATE-77" class="node default flowchart-label"><rect height="35" width="218.4875030517578" y="-17.5" x="-109.2437515258789" ry="0" rx="0" style="" class="basic label-container"/><g transform="translate(-101.7437515258789, -10)" style="" class="label"><rect/><foreignObject height="20" width="203.4875030517578"><div style="display: inline-block; white-space: nowrap;" xmlns="http://www.w3.org/1999/xhtml"><span class="nodeLabel">User rates: q ∈ {0,1,2,3,4,5}</span></div></foreignObject></g></g><g transform="translate(209.71875, 185.10000228881836)" data-id="CALC" data-node="true" id="flowchart-CALC-79" class="node default flowchart-label"><rect height="33.39999961853027" width="419.4375" y="-16.699999809265137" x="-209.71875" ry="0" rx="0" style="" class="basic label-container"/><g transform="translate(-202.21875, -9.199999809265137)" style="" class="label"><rect/><foreignObject height="18.399999618530273" width="404.4375"><div style="display: inline-block; white-space: nowrap;" xmlns="http://www.w3.org/1999/xhtml"><span class="nodeLabel">Update EF: EF' = EF + (0.1 - (5-q) × (0.08 + (5-q) × 0.02))</span></div></foreignObject></g></g><g transform="translate(209.71875, 309.0437545776367)" data-id="CHECK_EF" data-node="true" id="flowchart-CHECK_EF-81" class="node default flowchart-label"><polygon style="" transform="translate(-57.24375057220459,57.24375057220459)" class="label-container" points="57.24375057220459,0 114.48750114440918,-57.24375057220459 57.24375057220459,-114.48750114440918 0,-57.24375057220459"/><g transform="translate(-33.04375076293945, -9.199999809265137)" style="" class="label"><rect/><foreignObject height="18.399999618530273" width="66.0875015258789"><div style="display: inline-block; white-space: nowrap;" xmlns="http://www.w3.org/1999/xhtml"><span class="nodeLabel">EF' &lt; 1.3?</span></div></foreignObject></g></g><g transform="translate(250.72187566757202, 451.38750648498535)" data-id="SET_MIN" data-node="true" id="flowchart-SET_MIN-83" class="node default default flowchart-label"><rect height="33.39999961853027" width="75.2125015258789" y="-16.699999809265137" x="-37.60625076293945" ry="0" rx="0" style="" class="basic label-container"/><g transform="translate(-30.106250762939453, -9.199999809265137)" style="" class="label"><rect/><foreignObject height="18.399999618530273" width="60.212501525878906"><div style="display: inline-block; white-space: nowrap;" xmlns="http://www.w3.org/1999/xhtml"><span class="nodeLabel">EF' = 1.3</span></div></foreignObject></g></g><g transform="translate(209.71875, 562.8937587738037)" data-id="QUALITY" data-node="true" id="flowchart-QUALITY-85" class="node default default flowchart-label"><polygon style="fill:#FFF3E0;stroke:#E65100;" transform="translate(-44.80625057220459,44.80625057220459)" class="label-container" points="44.80625057220459,0 89.61250114440918,-44.80625057220459 44.80625057220459,-89.61250114440918 0,-44.80625057220459"/><g transform="translate(-20.606250762939453, -9.199999809265137)" style="" class="label"><rect/><foreignObject height="18.399999618530273" width="41.212501525878906"><div style="display: inline-block; white-space: nowrap;" xmlns="http://www.w3.org/1999/xhtml"><span class="nodeLabel">q &lt; 3?</span></div></foreignObject></g></g><g transform="translate(70.34062576293945, 1311.6375179290771)" data-id="RESET" data-node="true" id="flowchart-RESET-89" class="node default default flowchart-label"><rect height="70.20000076293945" width="140.45000457763672" y="-35.10000038146973" x="-70.22500228881836" ry="0" rx="0" style="fill:#FFEBEE;stroke:#C62828;" class="basic label-container"/><g transform="translate(-62.72500228881836, -27.600000381469727)" style="" class="label"><rect/><foreignObject height="55.20000076293945" width="125.45000457763672"><div style="display: inline-block; white-space: nowrap;" xmlns="http://www.w3.org/1999/xhtml"><span class="nodeLabel">repetition = 0<br />interval = 1 day<br />state = LEARNING</span></div></foreignObject></g></g><g transform="translate(390.7749996185303, 739.1062622070312)" data-id="REP_CHECK" data-node="true" id="flowchart-REP_CHECK-91" class="node default default flowchart-label"><polygon style="" transform="translate(-63.00625133514404,63.00625133514404)" class="label-container" points="63.00625133514404,0 126.01250267028809,-63.00625133514404 63.00625133514404,-126.01250267028809 0,-63.00625133514404"/><g transform="translate(-38.806251525878906, -9.199999809265137)" style="" class="label"><rect/><foreignObject height="18.399999618530273" width="77.61250305175781"><div style="display: inline-block; white-space: nowrap;" xmlns="http://www.w3.org/1999/xhtml"><span class="nodeLabel">repetition?</span></div></foreignObject></g></g><g transform="translate(168.84687423706055, 887.2125148773193)" data-id="INT1" data-node="true" id="flowchart-INT1-93" class="node default default flowchart-label"><rect height="33.39999961853027" width="127.01250457763672" y="-16.699999809265137" x="-63.50625228881836" ry="0" rx="0" style="" class="basic label-container"/><g transform="translate(-56.00625228881836, -9.199999809265137)" style="" class="label"><rect/><foreignObject height="18.399999618530273" width="112.01250457763672"><div style="display: inline-block; white-space: nowrap;" xmlns="http://www.w3.org/1999/xhtml"><span class="nodeLabel">interval = 1 day</span></div></foreignObject></g></g><g transform="translate(349.09687423706055, 887.2125148773193)" data-id="INT6" data-node="true" id="flowchart-INT6-95" class="node default default flowchart-label"><rect height="33.39999961853027" width="133.4875030517578" y="-16.699999809265137" x="-66.7437515258789" ry="0" rx="0" style="" class="basic label-container"/><g transform="translate(-59.243751525878906, -9.199999809265137)" style="" class="label"><rect/><foreignObject height="18.399999618530273" width="118.48750305175781"><div style="display: inline-block; white-space: nowrap;" xmlns="http://www.w3.org/1999/xhtml"><span class="nodeLabel">interval = 6 days</span></div></foreignObject></g></g><g transform="translate(556.6906242370605, 887.2125148773193)" data-id="INT_CALC" data-node="true" id="flowchart-INT_CALC-97" class="node default default flowchart-label"><rect height="33.39999961853027" width="181.6999969482422" y="-16.699999809265137" x="-90.8499984741211" ry="0" rx="0" style="" class="basic label-container"/><g transform="translate(-83.3499984741211, -9.199999809265137)" style="" class="label"><rect/><foreignObject height="18.399999618530273" width="166.6999969482422"><div style="display: inline-block; white-space: nowrap;" xmlns="http://www.w3.org/1999/xhtml"><span class="nodeLabel">interval = interval × EF'</span></div></foreignObject></g></g><g transform="translate(349.09687423706055, 989.0125160217285)" data-id="INC_REP" data-node="true" id="flowchart-INC_REP-99" class="node default default flowchart-label"><rect height="33.39999961853027" width="103.51250457763672" y="-16.699999809265137" x="-51.75625228881836" ry="0" rx="0" style="" class="basic label-container"/><g transform="translate(-44.25625228881836, -9.199999809265137)" style="" class="label"><rect/><foreignObject height="18.399999618530273" width="88.51250457763672"><div style="display: inline-block; white-space: nowrap;" xmlns="http://www.w3.org/1999/xhtml"><span class="nodeLabel">repetition++</span></div></foreignObject></g></g><g transform="translate(349.09687423706055, 1131.9250183105469)" data-id="STATE_CHECK" data-node="true" id="flowchart-STATE_CHECK-105" class="node default flowchart-label"><polygon style="" transform="translate(-76.21250057220459,76.21250057220459)" class="label-container" points="76.21250057220459,0 152.42500114440918,-76.21250057220459 76.21250057220459,-152.42500114440918 0,-76.21250057220459"/><g transform="translate(-52.01250076293945, -9.199999809265137)" style="" class="label"><rect/><foreignObject height="18.399999618530273" width="104.0250015258789"><div style="display: inline-block; white-space: nowrap;" xmlns="http://www.w3.org/1999/xhtml"><span class="nodeLabel">repetition &gt; 1?</span></div></foreignObject></g></g><g transform="translate(252.203125, 1311.6375179290771)" data-id="REVIEW_STATE" data-node="true" id="flowchart-REVIEW_STATE-107" class="node default default flowchart-label"><rect height="33.39999961853027" width="123.2750015258789" y="-16.699999809265137" x="-61.63750076293945" ry="0" rx="0" style="" class="basic label-container"/><g transform="translate(-54.13750076293945, -9.199999809265137)" style="" class="label"><rect/><foreignObject height="18.399999618530273" width="108.2750015258789"><div style="display: inline-block; white-space: nowrap;" xmlns="http://www.w3.org/1999/xhtml"><span class="nodeLabel">state = REVIEW</span></div></foreignObject></g></g><g transform="translate(482.5124988555908, 1311.6375179290771)" data-id="LEARNING_STATE" data-node="true" id="flowchart-LEARNING_STATE-109" class="node default default flowchart-label"><rect height="33.39999961853027" width="140.45000457763672" y="-16.699999809265137" x="-70.22500228881836" ry="0" rx="0" style="" class="basic label-container"/><g transform="translate(-62.72500228881836, -9.199999809265137)" style="" class="label"><rect/><foreignObject height="18.399999618530273" width="125.45000457763672"><div style="display: inline-block; white-space: nowrap;" xmlns="http://www.w3.org/1999/xhtml"><span class="nodeLabel">state = LEARNING</span></div></foreignObject></g></g><g transform="translate(258.1656246185303, 1413.4375171661377)" data-id="SCHEDULE" data-node="true" id="flowchart-SCHEDULE-111" class="node default default flowchart-label"><rect height="33.39999961853027" width="168.6374969482422" y="-16.699999809265137" x="-84.3187484741211" ry="0" rx="0" style="" class="basic label-container"/><g transform="translate(-76.8187484741211, -9.199999809265137)" style="" class="label"><rect/><foreignObject height="18.399999618530273" width="153.6374969482422"><div style="display: inline-block; white-space: nowrap;" xmlns="http://www.w3.org/1999/xhtml"><span class="nodeLabel">Schedule next review</span></div></foreignObject></g></g><g transform="translate(258.1656246185303, 1496.8375186920166)" data-id="END" data-node="true" id="flowchart-END-117" class="node default default flowchart-label"><rect height="33.39999961853027" width="136.8375015258789" y="-16.699999809265137" x="-68.41875076293945" ry="0" rx="0" style="fill:#E8F5E9;stroke:#2E7D32;" class="basic label-container"/><g transform="translate(-60.91875076293945, -9.199999809265137)" style="" class="label"><rect/><foreignObject height="18.399999618530273" width="121.8375015258789"><div style="display: inline-block; white-space: nowrap;" xmlns="http://www.w3.org/1999/xhtml"><span class="nodeLabel">Save to database</span></div></foreignObject></g></g></g></g></g></svg>